<svg width="19" height="16" viewBox="0 0 19 16" fill="none" xmlns="http://www.w3.org/2000/svg">
<path d="M7.49996 6.99993C6.53459 6.99993 5.70992 6.65794 5.02595 5.97398C4.34198 5.29001 4 4.46534 4 3.49996C4 2.53459 4.34198 1.70992 5.02595 1.02595C5.70992 0.341984 6.53459 0 7.49996 0C8.46534 0 9.29001 0.341984 9.97398 1.02595C10.6579 1.70992 10.9999 2.53459 10.9999 3.49996C10.9999 4.46534 10.6579 5.29001 9.97398 5.97398C9.29001 6.65794 8.46534 6.99993 7.49996 6.99993ZM0 14.6153V12.3922C0 11.8871 0.128845 11.4298 0.386536 11.0201C0.644226 10.6105 1.00384 10.2936 1.46537 10.0692C2.29614 9.65509 3.19357 9.30926 4.15767 9.0317C5.12176 8.75414 6.23586 8.61536 7.49996 8.61536C7.61406 8.61536 7.7115 8.61536 7.79227 8.61536C7.87303 8.61536 7.96021 8.62561 8.0538 8.64612C7.95252 8.88202 7.86887 9.1224 7.80285 9.36726C7.73682 9.61213 7.68202 9.86148 7.63843 10.1153H7.49996C6.34868 10.1153 5.32946 10.2477 4.44228 10.5124C3.55511 10.7772 2.79228 11.0756 2.15382 11.4076C1.92689 11.5294 1.76118 11.6717 1.6567 11.8346C1.55221 11.9974 1.49996 12.1833 1.49996 12.3922V13.1153H7.79996C7.87432 13.3692 7.97079 13.6268 8.08938 13.8884C8.20796 14.1499 8.33841 14.3922 8.48071 14.6153H0ZM13.6057 15.3556L13.3827 14.0287C13.1442 13.9582 12.9198 13.8659 12.7096 13.7518C12.4993 13.6377 12.2993 13.4948 12.1096 13.323L10.8423 13.7633L10.1308 12.5538L11.1654 11.7076C11.0936 11.4486 11.0577 11.1935 11.0577 10.9422C11.0577 10.6909 11.0936 10.4358 11.1654 10.1768L10.1404 9.31146L10.8519 8.10188L12.1096 8.55188C12.2929 8.38008 12.4913 8.23874 12.7048 8.12784C12.9182 8.01694 13.1442 7.92623 13.3827 7.85572L13.6057 6.52881H15.0288L15.2422 7.85572C15.4807 7.92623 15.7067 8.0195 15.9201 8.13553C16.1336 8.25156 16.332 8.4006 16.5153 8.58265L17.773 8.10188L18.4845 9.34223L17.4595 10.2076C17.5313 10.4461 17.5672 10.6961 17.5672 10.9576C17.5672 11.2192 17.5313 11.4692 17.4595 11.7076L18.4941 12.5538L17.7826 13.7633L16.5153 13.323C16.3256 13.4948 16.1256 13.6377 15.9153 13.7518C15.7051 13.8659 15.4807 13.9582 15.2422 14.0287L15.0288 15.3556H13.6057ZM14.3076 12.8461C14.832 12.8461 15.2804 12.6599 15.6528 12.2874C16.0253 11.915 16.2115 11.4666 16.2115 10.9422C16.2115 10.4179 16.0253 9.96948 15.6528 9.59704C15.2804 9.22461 14.832 9.03839 14.3076 9.03839C13.7833 9.03839 13.3349 9.22461 12.9625 9.59704C12.59 9.96948 12.4038 10.4179 12.4038 10.9422C12.4038 11.4666 12.59 11.915 12.9625 12.2874C13.3349 12.6599 13.7833 12.8461 14.3076 12.8461ZM7.49996 5.49996C8.04996 5.49996 8.5208 5.30413 8.91246 4.91246C9.30413 4.5208 9.49996 4.04996 9.49996 3.49996C9.49996 2.94996 9.30413 2.47913 8.91246 2.08746C8.5208 1.6958 8.04996 1.49996 7.49996 1.49996C6.94996 1.49996 6.47913 1.6958 6.08746 2.08746C5.6958 2.47913 5.49996 2.94996 5.49996 3.49996C5.49996 4.04996 5.6958 4.5208 6.08746 4.91246C6.47913 5.30413 6.94996 5.49996 7.49996 5.49996Z" fill="#464555"/>
</svg>
