<svg width="16" height="19" viewBox="0 0 16 19" fill="none" xmlns="http://www.w3.org/2000/svg">
<path d="M7.54804 9.36534C8.04676 9.36534 8.47272 9.18874 8.82592 8.83554C9.17912 8.48233 9.35572 8.05637 9.35572 7.55766C9.35572 7.05895 9.17912 6.63299 8.82592 6.27979C8.47272 5.92658 8.04676 5.74998 7.54804 5.74998C7.04933 5.74998 6.62337 5.92658 6.27017 6.27979C5.91697 6.63299 5.74037 7.05895 5.74037 7.55766C5.74037 8.05637 5.91697 8.48233 6.27017 8.83554C6.62337 9.18874 7.04933 9.36534 7.54804 9.36534ZM7.54804 17.0134C9.50445 15.2622 11.0016 13.5824 12.0394 11.974C13.0772 10.3657 13.5961 8.95702 13.5961 7.74804C13.5961 5.92497 13.017 4.42625 11.8586 3.25189C10.7003 2.07753 9.26343 1.49035 7.54804 1.49035C5.83266 1.49035 4.3958 2.07753 3.23746 3.25189C2.07913 4.42625 1.49996 5.92497 1.49996 7.74804C1.49996 8.95702 2.01888 10.3657 3.0567 11.974C4.09452 13.5824 5.59164 15.2622 7.54804 17.0134ZM7.54804 19.0095C5.03139 16.8288 3.14422 14.7993 1.88653 12.9211C0.628844 11.0429 0 9.31855 0 7.74804C0 5.44037 0.74647 3.57211 2.23941 2.14326C3.73235 0.714421 5.50189 0 7.54804 0C9.59419 0 11.3637 0.714421 12.8567 2.14326C14.3496 3.57211 15.0961 5.44037 15.0961 7.74804C15.0961 9.31855 14.4672 11.0429 13.2096 12.9211C11.9519 14.7993 10.0647 16.8288 7.54804 19.0095Z" fill="#464555"/>
</svg>
