<svg width="22" height="22" viewBox="0 0 22 22" fill="none" xmlns="http://www.w3.org/2000/svg">
<path d="M10 2.69229V0H11.5V2.69229H10ZM10 21.5V18.8077H11.5V21.5H10ZM18.8077 11.5V10H21.5V11.5H18.8077ZM0 11.5V10H2.69229V11.5H0ZM17.2577 5.29612L16.2038 4.2423L17.8 2.61539L18.8846 3.69998L17.2577 5.29612ZM3.69998 18.8846L2.61539 17.8L4.2423 16.2038L5.29612 17.2577L3.69998 18.8846ZM17.8 18.8846L16.2038 17.2577L17.2577 16.2038L18.8846 17.8L17.8 18.8846ZM4.2423 5.29612L2.61539 3.69998L3.69998 2.61539L5.29612 4.2423L4.2423 5.29612ZM10.75 16.2499C9.22435 16.2499 7.92628 15.7147 6.85578 14.6442C5.78527 13.5737 5.25002 12.2756 5.25002 10.75C5.25002 9.22435 5.78527 7.92628 6.85578 6.85578C7.92628 5.78527 9.22435 5.25002 10.75 5.25002C12.2756 5.25002 13.5737 5.78527 14.6442 6.85578C15.7147 7.92628 16.2499 9.22435 16.2499 10.75C16.2499 12.2756 15.7147 13.5737 14.6442 14.6442C13.5737 15.7147 12.2756 16.2499 10.75 16.2499ZM10.75 14.75C11.8666 14.75 12.8125 14.3625 13.5875 13.5875C14.3625 12.8125 14.75 11.8666 14.75 10.75C14.75 9.63332 14.3625 8.68748 13.5875 7.91248C12.8125 7.13748 11.8666 6.74998 10.75 6.74998C9.63332 6.74998 8.68748 7.13748 7.91248 7.91248C7.13748 8.68748 6.74998 9.63332 6.74998 10.75C6.74998 11.8666 7.13748 12.8125 7.91248 13.5875C8.68748 14.3625 9.63332 14.75 10.75 14.75Z" fill="#777587"/>
</svg>
