<svg width="24" height="30" viewBox="0 0 24 30" fill="none" xmlns="http://www.w3.org/2000/svg">
<path d="M0 29.3333V20C0 18.1556 0.65 16.5833 1.95 15.2833C3.25 13.9833 4.82222 13.3333 6.66667 13.3333H8V2.66667C8 1.93333 8.26111 1.30556 8.78333 0.783333C9.30556 0.261111 9.93333 0 10.6667 0H13.3333C14.0667 0 14.6944 0.261111 15.2167 0.783333C15.7389 1.30556 16 1.93333 16 2.66667V13.3333H17.3333C19.1778 13.3333 20.75 13.9833 22.05 15.2833C23.35 16.5833 24 18.1556 24 20V29.3333H0ZM2.66667 26.6667H5.33333V22.6667C5.33333 22.2889 5.46111 21.9722 5.71667 21.7167C5.97222 21.4611 6.28889 21.3333 6.66667 21.3333C7.04444 21.3333 7.36111 21.4611 7.61667 21.7167C7.87222 21.9722 8 22.2889 8 22.6667V26.6667H10.6667V22.6667C10.6667 22.2889 10.7944 21.9722 11.05 21.7167C11.3056 21.4611 11.6222 21.3333 12 21.3333C12.3778 21.3333 12.6944 21.4611 12.95 21.7167C13.2056 21.9722 13.3333 22.2889 13.3333 22.6667V26.6667H16V22.6667C16 22.2889 16.1278 21.9722 16.3833 21.7167C16.6389 21.4611 16.9556 21.3333 17.3333 21.3333C17.7111 21.3333 18.0278 21.4611 18.2833 21.7167C18.5389 21.9722 18.6667 22.2889 18.6667 22.6667V26.6667H21.3333V20C21.3333 18.8889 20.9444 17.9444 20.1667 17.1667C19.3889 16.3889 18.4444 16 17.3333 16H6.66667C5.55556 16 4.61111 16.3889 3.83333 17.1667C3.05556 17.9444 2.66667 18.8889 2.66667 20V26.6667ZM13.3333 13.3333V2.66667H10.6667V13.3333H13.3333ZM13.3333 13.3333H10.6667H13.3333Z" fill="#3525CD"/>
</svg>
