<svg width="30" height="22" viewBox="0 0 30 22" fill="none" xmlns="http://www.w3.org/2000/svg">
<path d="M6.66667 21.3333C5.55556 21.3333 4.61111 20.9444 3.83333 20.1667C3.05556 19.3889 2.66667 18.4444 2.66667 17.3333H0V2.66667C0 1.93333 0.261111 1.30556 0.783333 0.783333C1.30556 0.261111 1.93333 0 2.66667 0H21.3333V5.33333H25.3333L29.3333 10.6667V17.3333H26.6667C26.6667 18.4444 26.2778 19.3889 25.5 20.1667C24.7222 20.9444 23.7778 21.3333 22.6667 21.3333C21.5556 21.3333 20.6111 20.9444 19.8333 20.1667C19.0556 19.3889 18.6667 18.4444 18.6667 17.3333H10.6667C10.6667 18.4444 10.2778 19.3889 9.5 20.1667C8.72222 20.9444 7.77778 21.3333 6.66667 21.3333ZM6.66667 18.6667C7.04444 18.6667 7.36111 18.5389 7.61667 18.2833C7.87222 18.0278 8 17.7111 8 17.3333C8 16.9556 7.87222 16.6389 7.61667 16.3833C7.36111 16.1278 7.04444 16 6.66667 16C6.28889 16 5.97222 16.1278 5.71667 16.3833C5.46111 16.6389 5.33333 16.9556 5.33333 17.3333C5.33333 17.7111 5.46111 18.0278 5.71667 18.2833C5.97222 18.5389 6.28889 18.6667 6.66667 18.6667ZM2.66667 14.6667H3.73333C4.11111 14.2667 4.54444 13.9444 5.03333 13.7C5.52222 13.4556 6.06667 13.3333 6.66667 13.3333C7.26667 13.3333 7.81111 13.4556 8.3 13.7C8.78889 13.9444 9.22222 14.2667 9.6 14.6667H18.6667V2.66667H2.66667V14.6667ZM22.6667 18.6667C23.0444 18.6667 23.3611 18.5389 23.6167 18.2833C23.8722 18.0278 24 17.7111 24 17.3333C24 16.9556 23.8722 16.6389 23.6167 16.3833C23.3611 16.1278 23.0444 16 22.6667 16C22.2889 16 21.9722 16.1278 21.7167 16.3833C21.4611 16.6389 21.3333 16.9556 21.3333 17.3333C21.3333 17.7111 21.4611 18.0278 21.7167 18.2833C21.9722 18.5389 22.2889 18.6667 22.6667 18.6667ZM21.3333 12H27L24 8H21.3333V12Z" fill="#3525CD"/>
</svg>
