<svg width="15" height="15" viewBox="0 0 15 15" fill="none" xmlns="http://www.w3.org/2000/svg">
<path d="M6.45 10.95L11.7375 5.6625L10.6875 4.6125L6.45 8.85L4.3125 6.7125L3.2625 7.7625L6.45 10.95ZM7.5 15C6.4625 15 5.4875 14.8031 4.575 14.4094C3.6625 14.0156 2.86875 13.4812 2.19375 12.8062C1.51875 12.1312 0.984375 11.3375 0.590625 10.425C0.196875 9.5125 0 8.5375 0 7.5C0 6.4625 0.196875 5.4875 0.590625 4.575C0.984375 3.6625 1.51875 2.86875 2.19375 2.19375C2.86875 1.51875 3.6625 0.984375 4.575 0.590625C5.4875 0.196875 6.4625 0 7.5 0C8.5375 0 9.5125 0.196875 10.425 0.590625C11.3375 0.984375 12.1312 1.51875 12.8062 2.19375C13.4812 2.86875 14.0156 3.6625 14.4094 4.575C14.8031 5.4875 15 6.4625 15 7.5C15 8.5375 14.8031 9.5125 14.4094 10.425C14.0156 11.3375 13.4812 12.1312 12.8062 12.8062C12.1312 13.4812 11.3375 14.0156 10.425 14.4094C9.5125 14.8031 8.5375 15 7.5 15ZM7.5 13.5C9.175 13.5 10.5938 12.9188 11.7563 11.7563C12.9188 10.5938 13.5 9.175 13.5 7.5C13.5 5.825 12.9188 4.40625 11.7563 3.24375C10.5938 2.08125 9.175 1.5 7.5 1.5C5.825 1.5 4.40625 2.08125 3.24375 3.24375C2.08125 4.40625 1.5 5.825 1.5 7.5C1.5 9.175 2.08125 10.5938 3.24375 11.7563C4.40625 12.9188 5.825 13.5 7.5 13.5Z" fill="#3525CD"/>
</svg>
