<svg width="13" height="13" viewBox="0 0 13 13" fill="none" xmlns="http://www.w3.org/2000/svg">
<path d="M1.12497 11.625H2.07112L9.74855 3.94754L8.8024 3.0014L1.12497 10.6788V11.625ZM0 12.7499V10.2115L9.89279 0.323069C10.0062 0.220061 10.1314 0.140465 10.2685 0.0842789C10.4055 0.028093 10.5492 0 10.6996 0C10.8499 0 10.9956 0.0266819 11.1366 0.0800457C11.2776 0.13341 11.4024 0.218263 11.511 0.334607L12.4269 1.262C12.5432 1.37065 12.6262 1.49567 12.6757 1.63706C12.7252 1.77845 12.7499 1.91984 12.7499 2.06123C12.7499 2.21205 12.7242 2.35598 12.6727 2.49302C12.6212 2.63006 12.5392 2.75528 12.4269 2.8687L2.53841 12.7499H0ZM11.6322 2.05958L10.6904 1.11776L11.6322 2.05958ZM9.26717 3.48277L8.8024 3.0014L9.74855 3.94754L9.26717 3.48277Z" fill="white"/>
</svg>
