<svg width="18" height="16" viewBox="0 0 18 16" fill="none" xmlns="http://www.w3.org/2000/svg">
<path d="M15 11V9H17C17.2833 9 17.5208 9.09583 17.7125 9.2875C17.9042 9.47917 18 9.71667 18 10C18 10.2833 17.9042 10.5208 17.7125 10.7125C17.5208 10.9042 17.2833 11 17 11H15ZM15 15V13H17C17.2833 13 17.5208 13.0958 17.7125 13.2875C17.9042 13.4792 18 13.7167 18 14C18 14.2833 17.9042 14.5208 17.7125 14.7125C17.5208 14.9042 17.2833 15 17 15H15ZM11 16C10.45 16 9.97917 15.8042 9.5875 15.4125C9.19583 15.0208 9 14.55 9 14H7V10H9C9 9.45 9.19583 8.97917 9.5875 8.5875C9.97917 8.19583 10.45 8 11 8H14V16H11ZM4 13C2.9 13 1.95833 12.6083 1.175 11.825C0.391667 11.0417 0 10.1 0 9C0 7.9 0.391667 6.95833 1.175 6.175C1.95833 5.39167 2.9 5 4 5H5.5C5.91667 5 6.27083 4.85417 6.5625 4.5625C6.85417 4.27083 7 3.91667 7 3.5C7 3.08333 6.85417 2.72917 6.5625 2.4375C6.27083 2.14583 5.91667 2 5.5 2H2C1.71667 2 1.47917 1.90417 1.2875 1.7125C1.09583 1.52083 1 1.28333 1 1C1 0.716667 1.09583 0.479167 1.2875 0.2875C1.47917 0.0958333 1.71667 0 2 0H5.5C6.46667 0 7.29167 0.341667 7.975 1.025C8.65833 1.70833 9 2.53333 9 3.5C9 4.46667 8.65833 5.29167 7.975 5.975C7.29167 6.65833 6.46667 7 5.5 7H4C3.45 7 2.97917 7.19583 2.5875 7.5875C2.19583 7.97917 2 8.45 2 9C2 9.55 2.19583 10.0208 2.5875 10.4125C2.97917 10.8042 3.45 11 4 11H6V13H4Z" fill="#3525CD"/>
</svg>
