<svg width="19" height="19" viewBox="0 0 19 19" fill="none" xmlns="http://www.w3.org/2000/svg">
<path d="M9.48897 15.1153C9.7745 15.1153 10.0157 15.0167 10.2125 14.8196C10.4092 14.6224 10.5076 14.3811 10.5076 14.0956C10.5076 13.81 10.4091 13.5689 10.2119 13.3721C10.0148 13.1753 9.77342 13.0769 9.48789 13.0769C9.20235 13.0769 8.96119 13.1755 8.7644 13.3726C8.56761 13.5698 8.46921 13.8111 8.46921 14.0966C8.46921 14.3822 8.56779 14.6233 8.76494 14.8201C8.9621 15.0169 9.20344 15.1153 9.48897 15.1153ZM8.78075 11.5346H10.1884C10.2012 11.0423 10.2733 10.649 10.4048 10.3548C10.5362 10.0605 10.8551 9.67048 11.3615 9.18459C11.8012 8.74484 12.1381 8.33876 12.3721 7.96632C12.606 7.59389 12.723 7.15406 12.723 6.64685C12.723 5.78612 12.4137 5.11377 11.7952 4.6298C11.1766 4.14583 10.4448 3.90384 9.59996 3.90384C8.76536 3.90384 8.07466 4.12659 7.52787 4.5721C6.98107 5.01761 6.59101 5.54229 6.35768 6.14612L7.64227 6.6615C7.76406 6.32945 7.9724 6.00605 8.26727 5.69131C8.56214 5.37657 8.99996 5.2192 9.58073 5.2192C10.1718 5.2192 10.6086 5.38106 10.8913 5.70478C11.174 6.0285 11.3154 6.38459 11.3154 6.77305C11.3154 7.1128 11.2186 7.42369 11.025 7.70574C10.8314 7.9878 10.5846 8.26023 10.2846 8.52305C9.62818 9.11536 9.21344 9.58779 9.04037 9.94036C8.86729 10.2929 8.78075 10.8243 8.78075 11.5346ZM9.50164 18.9999C8.18771 18.9999 6.95267 18.7506 5.79653 18.2519C4.64039 17.7533 3.63471 17.0765 2.77948 16.2217C1.92426 15.3668 1.2472 14.3616 0.748323 13.206C0.249441 12.0503 0 10.8156 0 9.50164C0 8.18771 0.24933 6.95267 0.74799 5.79653C1.24665 4.64039 1.9234 3.63471 2.77825 2.77948C3.6331 1.92426 4.63833 1.24721 5.79396 0.748323C6.94958 0.249441 8.18436 0 9.49829 0C10.8122 0 12.0473 0.24933 13.2034 0.74799C14.3595 1.24665 15.3652 1.9234 16.2204 2.77825C17.0757 3.6331 17.7527 4.63833 18.2516 5.79396C18.7505 6.94958 18.9999 8.18436 18.9999 9.49829C18.9999 10.8122 18.7506 12.0473 18.2519 13.2034C17.7533 14.3595 17.0765 15.3652 16.2217 16.2204C15.3668 17.0757 14.3616 17.7527 13.206 18.2516C12.0503 18.7505 10.8156 18.9999 9.50164 18.9999ZM9.49996 17.5C11.7333 17.5 13.625 16.725 15.175 15.175C16.725 13.625 17.5 11.7333 17.5 9.49996C17.5 7.26663 16.725 5.37496 15.175 3.82496C13.625 2.27496 11.7333 1.49996 9.49996 1.49996C7.26663 1.49996 5.37496 2.27496 3.82496 3.82496C2.27496 5.37496 1.49996 7.26663 1.49996 9.49996C1.49996 11.7333 2.27496 13.625 3.82496 15.175C5.37496 16.725 7.26663 17.5 9.49996 17.5Z" fill="#464555"/>
</svg>
