<svg width="10" height="10" viewBox="0 0 10 10" fill="none" xmlns="http://www.w3.org/2000/svg">
<path d="M0 9.33333V8.16667H1.60417L1.37083 7.9625C0.865278 7.51528 0.510417 7.00486 0.30625 6.43125C0.102083 5.85764 0 5.27917 0 4.69583C0 3.61667 0.323264 2.6566 0.969792 1.81562C1.61632 0.974653 2.45972 0.418056 3.5 0.145833V1.37083C2.8 1.62361 2.23611 2.05382 1.80833 2.66146C1.38056 3.2691 1.16667 3.94722 1.16667 4.69583C1.16667 5.13333 1.24931 5.55868 1.41458 5.97188C1.57986 6.38507 1.8375 6.76667 2.1875 7.11667L2.33333 7.2625V5.83333H3.5V9.33333H0ZM5.83333 9.1875V7.9625C6.53333 7.70972 7.09722 7.27951 7.525 6.67188C7.95278 6.06424 8.16667 5.38611 8.16667 4.6375C8.16667 4.2 8.08403 3.77465 7.91875 3.36146C7.75347 2.94826 7.49583 2.56667 7.14583 2.21667L7 2.07083V3.5H5.83333V0H9.33333V1.16667H7.72917L7.9625 1.37083C8.43889 1.84722 8.78646 2.36493 9.00521 2.92396C9.22396 3.48299 9.33333 4.05417 9.33333 4.6375C9.33333 5.71667 9.01007 6.67674 8.36354 7.51771C7.71701 8.35868 6.87361 8.91528 5.83333 9.1875Z" fill="#006F66"/>
</svg>
