<svg width="12" height="17" viewBox="0 0 12 17" fill="none" xmlns="http://www.w3.org/2000/svg">
<path d="M5.66103 7.024C6.03507 7.024 6.35454 6.89155 6.61944 6.62665C6.88434 6.36175 7.01679 6.04228 7.01679 5.66824C7.01679 5.29421 6.88434 4.97474 6.61944 4.70984C6.35454 4.44494 6.03507 4.31249 5.66103 4.31249C5.287 4.31249 4.96753 4.44494 4.70263 4.70984C4.43773 4.97474 4.30527 5.29421 4.30527 5.66824C4.30527 6.04228 4.43773 6.36175 4.70263 6.62665C4.96753 6.89155 5.287 7.024 5.66103 7.024ZM5.66103 12.7601C7.12834 11.4466 8.25117 10.1868 9.02954 8.98051C9.80791 7.77426 10.1971 6.71776 10.1971 5.81103C10.1971 4.44372 9.76272 3.31969 8.89397 2.43892C8.02522 1.55815 6.94757 1.11776 5.66103 1.11776C4.37449 1.11776 3.29685 1.55815 2.4281 2.43892C1.55935 3.31969 1.12497 4.44372 1.12497 5.81103C1.12497 6.71776 1.51416 7.77426 2.29253 8.98051C3.07089 10.1868 4.19373 11.4466 5.66103 12.7601ZM5.66103 14.2572C3.77354 12.6216 2.35816 11.0995 1.4149 9.69083C0.471633 8.28218 0 6.98891 0 5.81103C0 4.08027 0.559853 2.67908 1.67956 1.60745C2.79926 0.535816 4.12642 0 5.66103 0C7.19564 0 8.5228 0.535816 9.64251 1.60745C10.7622 2.67908 11.3221 4.08027 11.3221 5.81103C11.3221 6.98891 10.8504 8.28218 9.90717 9.69083C8.9639 11.0995 7.54852 12.6216 5.66103 14.2572Z" fill="#3525CD"/>
</svg>
