<svg width="15" height="15" viewBox="0 0 15 15" fill="none" xmlns="http://www.w3.org/2000/svg">
<path d="M1.5064 14.1666C1.08546 14.1666 0.72916 14.0208 0.437496 13.7291C0.145832 13.4374 0 13.0811 0 12.6602V1.5064C0 1.08546 0.145832 0.72916 0.437496 0.437496C0.72916 0.145832 1.08546 0 1.5064 0H7.09132V1.24997H1.5064C1.44229 1.24997 1.38353 1.27668 1.3301 1.3301C1.27668 1.38353 1.24997 1.44229 1.24997 1.5064V12.6602C1.24997 12.7243 1.27668 12.7831 1.3301 12.8365C1.38353 12.8899 1.44229 12.9166 1.5064 12.9166H7.09132V14.1666H1.5064ZM10.609 10.641L9.74359 9.73713L11.7724 7.70829H4.66344V6.45832H11.7724L9.74359 4.42948L10.609 3.52566L14.1666 7.0833L10.609 10.641Z" fill="#BA1A1A"/>
</svg>
