<svg width="110" height="28" viewBox="0 0 110 28" fill="none" xmlns="http://www.w3.org/2000/svg">
<path d="M6.65334 21.2117C5.48914 21.2117 4.47559 21.0328 3.61269 20.6749C2.74979 20.317 2.07739 19.7871 1.59549 19.0852C1.11358 18.3833 0.857398 17.5165 0.826931 16.4847H3.72798C3.766 16.9753 3.91199 17.3849 4.16596 17.7133C4.41993 18.0418 4.75902 18.2879 5.18323 18.4516C5.60744 18.6153 6.08693 18.6972 6.62169 18.6972C7.15267 18.6972 7.61604 18.6197 8.0118 18.4646C8.40756 18.3095 8.71537 18.092 8.93522 17.8122C9.15507 17.5323 9.26499 17.209 9.26499 16.8424C9.26499 16.5072 9.16656 16.2274 8.96969 16.003C8.77282 15.7786 8.48793 15.5861 8.11502 15.4254C7.7421 15.2647 7.28996 15.1216 6.75858 14.9959L5.15898 14.5981C3.92733 14.2977 2.96226 13.8268 2.26375 13.1855C1.56524 12.5441 1.21599 11.6942 1.21599 10.6358C1.21599 9.7592 1.45317 8.9922 1.92752 8.33478C2.40187 7.67735 3.05093 7.16618 3.8747 6.80127C4.69847 6.43636 5.63711 6.25391 6.69064 6.25391C7.76721 6.25391 8.70585 6.43812 9.50657 6.80655C10.3073 7.17497 10.9314 7.68569 11.3789 8.33869C11.8265 8.99169 12.058 9.74404 12.0735 10.5957H9.19176C9.13525 10.0127 8.88549 9.56086 8.44246 9.24029C7.99944 8.91972 7.40651 8.75944 6.66368 8.75944C6.15822 8.75944 5.72663 8.83209 5.36889 8.9774C5.01115 9.12271 4.73899 9.32267 4.5524 9.57728C4.36582 9.8319 4.27253 10.122 4.27253 10.4477C4.27253 10.8043 4.38118 11.1003 4.59849 11.3357C4.8158 11.5711 5.10226 11.7628 5.45785 11.9107C5.81344 12.0586 6.19515 12.1814 6.60296 12.2791L7.91565 12.6004C8.52777 12.7397 9.09797 12.9269 9.62623 13.1619C10.1545 13.3969 10.6168 13.6851 11.013 14.0266C11.4093 14.368 11.7177 14.7723 11.9381 15.2395C12.1586 15.7068 12.2688 16.2456 12.2688 16.8558C12.2688 17.738 12.0463 18.506 11.6012 19.1599C11.1562 19.8137 10.5151 20.3191 9.67815 20.6762C8.84117 21.0332 7.8329 21.2117 6.65334 21.2117ZM18.7813 21.2133C17.6668 21.2133 16.706 20.9851 15.8988 20.5286C15.0917 20.0722 14.4717 19.424 14.039 18.5842C13.6062 17.7443 13.3898 16.7487 13.3898 15.5973C13.3898 14.474 13.6048 13.4885 14.0349 12.6409C14.4649 11.7933 15.0731 11.1322 15.8595 10.6574C16.6459 10.1827 17.5708 9.94531 18.6342 9.94531C19.3472 9.94531 20.0134 10.0589 20.6328 10.2861C21.2522 10.5134 21.7958 10.856 22.2636 11.3141C22.7314 11.7721 23.0967 12.3477 23.3596 13.0408C23.6225 13.7339 23.7539 14.5481 23.7539 15.4834V16.3055H14.5918V14.4625H22.3268L20.958 14.9566C20.958 14.3881 20.8712 13.8941 20.6975 13.4746C20.5239 13.0551 20.2667 12.7297 19.926 12.4983C19.5852 12.2669 19.1617 12.1512 18.6553 12.1512C18.1489 12.1512 17.7194 12.2684 17.3666 12.5028C17.0139 12.7371 16.7455 13.0551 16.5614 13.4567C16.3773 13.8582 16.2852 14.3148 16.2852 14.8264V16.1238C16.2852 16.7553 16.3909 17.2859 16.6023 17.7154C16.8137 18.145 17.111 18.4677 17.4943 18.6836C17.8775 18.8994 18.3221 19.0074 18.8279 19.0074C19.1697 19.0074 19.4804 18.9587 19.7599 18.8614C20.0393 18.7641 20.2797 18.6199 20.4808 18.4291C20.682 18.2382 20.8351 18.0029 20.9402 17.7232L23.5887 18.2131C23.4124 18.8162 23.1066 19.3428 22.6713 19.7929C22.236 20.2429 21.6907 20.5922 21.0352 20.8406C20.3797 21.0891 19.6284 21.2133 18.7813 21.2133ZM25.2574 21V10.082H28.0958V11.9832H28.213C28.4113 11.3103 28.7463 10.8009 29.2182 10.4551C29.6901 10.1092 30.2322 9.93633 30.8446 9.93633C30.9959 9.93633 31.1584 9.94486 31.3322 9.96192C31.5059 9.97897 31.659 10.0031 31.7913 10.0342V12.6508C31.6618 12.6062 31.4727 12.57 31.224 12.5422C30.9752 12.5144 30.7424 12.5005 30.5256 12.5005C30.0786 12.5005 29.6774 12.5972 29.322 12.7907C28.9666 12.9842 28.6884 13.252 28.4875 13.5942C28.2865 13.9364 28.186 14.3338 28.186 14.7864V21H25.2574ZM36.2896 21L32.2726 10.082H35.3831L37.2168 15.7497C37.4431 16.4555 37.639 17.1701 37.8045 17.8937C37.97 18.6173 38.1401 19.3654 38.3149 20.1381H37.6862C37.8574 19.3654 38.0249 18.6182 38.1886 17.8963C38.3523 17.1745 38.5441 16.459 38.7639 15.7497L40.5765 10.082H43.6553L39.6278 21H36.2896ZM44.7066 21V10.082H47.6352V21H44.7066ZM46.1701 8.65882C45.7291 8.65882 45.3512 8.51139 45.0365 8.21653C44.7218 7.92168 44.5644 7.56786 44.5644 7.15506C44.5644 6.73384 44.7218 6.37753 45.0365 6.08612C45.3512 5.79471 45.7291 5.649 46.1701 5.649C46.6132 5.649 46.9923 5.79452 47.3075 6.08555C47.6227 6.37659 47.7803 6.733 47.7803 7.15479C47.7803 7.56814 47.6227 7.92215 47.3075 8.21682C46.9923 8.51148 46.6132 8.65882 46.1701 8.65882ZM54.5076 21.2133C53.4126 21.2133 52.4659 20.978 51.6678 20.5075C50.8696 20.037 50.2543 19.3795 49.8218 18.5349C49.3893 17.6903 49.173 16.7081 49.173 15.5883C49.173 14.4595 49.3893 13.4721 49.8218 12.626C50.2543 11.7799 50.8696 11.1216 51.6678 10.6511C52.4659 10.1806 53.4126 9.94531 54.5076 9.94531C55.158 9.94531 55.7563 10.0295 56.3024 10.1979C56.8485 10.3662 57.3328 10.6071 57.7553 10.9205C58.1778 11.2339 58.5256 11.6147 58.7985 12.0629C59.0714 12.5111 59.2599 13.015 59.3639 13.5747L56.6408 14.0848C56.5802 13.8013 56.4888 13.5468 56.3665 13.3212C56.2441 13.0957 56.0947 12.9028 55.918 12.7425C55.7414 12.5823 55.5377 12.4603 55.3067 12.3764C55.0758 12.2926 54.82 12.2506 54.5393 12.2506C54.0175 12.2506 53.5803 12.391 53.2276 12.6716C52.8749 12.9523 52.6083 13.3421 52.4279 13.841C52.2475 14.34 52.1573 14.9189 52.1573 15.5777C52.1573 16.2271 52.2475 16.8022 52.4279 17.3032C52.6083 17.8042 52.8749 18.1969 53.2276 18.4813C53.5803 18.7657 54.0175 18.908 54.5393 18.908C54.823 18.908 55.0818 18.8644 55.3157 18.7773C55.5496 18.6902 55.7573 18.5641 55.9387 18.3992C56.12 18.2342 56.2719 18.0333 56.3942 17.7964C56.5165 17.5596 56.6062 17.2947 56.6632 17.0017L59.3819 17.5066C59.2808 18.0828 59.0931 18.5982 58.8187 19.0529C58.5443 19.5076 58.1959 19.8964 57.7737 20.2193C57.3514 20.5422 56.8648 20.7886 56.314 20.9585C55.7631 21.1284 55.161 21.2133 54.5076 21.2133ZM65.832 21.2133C64.7176 21.2133 63.7568 20.9851 62.9496 20.5286C62.1424 20.0722 61.5225 19.424 61.0897 18.5842C60.657 17.7443 60.4406 16.7487 60.4406 15.5973C60.4406 14.474 60.6556 13.4885 61.0856 12.6409C61.5156 11.7933 62.1239 11.1322 62.9102 10.6574C63.6966 10.1827 64.6216 9.94531 65.685 9.94531C66.398 9.94531 67.0642 10.0589 67.6836 10.2861C68.303 10.5134 68.8466 10.856 69.3144 11.3141C69.7822 11.7721 70.1475 12.3477 70.4104 13.0408C70.6733 13.7339 70.8047 14.5481 70.8047 15.4834V16.3055H61.6426V14.4625H69.3775L68.0087 14.9566C68.0087 14.3881 67.9219 13.8941 67.7483 13.4746C67.5747 13.0551 67.3175 12.7297 66.9767 12.4983C66.636 12.2669 66.2124 12.1512 65.7061 12.1512C65.1997 12.1512 64.7701 12.2684 64.4174 12.5028C64.0647 12.7371 63.7963 13.0551 63.6122 13.4567C63.4281 13.8582 63.336 14.3148 63.336 14.8264V16.1238C63.336 16.7553 63.4417 17.2859 63.6531 17.7154C63.8645 18.145 64.1618 18.4677 64.5451 18.6836C64.9283 18.8994 65.3729 19.0074 65.8787 19.0074C66.2205 19.0074 66.5311 18.9587 66.8106 18.8614C67.0901 18.7641 67.3304 18.6199 67.5316 18.4291C67.7328 18.2382 67.8859 18.0029 67.991 17.7232L70.6395 18.2131C70.4632 18.8162 70.1574 19.3428 69.7221 19.7929C69.2868 20.2429 68.7414 20.5922 68.086 20.8406C67.4305 21.0891 66.6792 21.2133 65.832 21.2133ZM72.3754 21V6.44922H75.3594V12.3269H81.6988V6.44922H84.6828V21H81.6988V14.8008H75.3594V21H72.3754ZM90.5088 21.1367C89.7555 21.1367 89.0962 20.9722 88.5307 20.6431C87.9653 20.314 87.5271 19.8417 87.2161 19.2262C86.9051 18.6107 86.7496 17.8773 86.7496 17.0262V10.082H89.6782V16.5158C89.6782 17.1939 89.8538 17.7258 90.2051 18.1114C90.5564 18.497 91.0409 18.6898 91.6584 18.6898C92.0738 18.6898 92.4398 18.5996 92.7565 18.4192C93.0733 18.2388 93.3222 17.9772 93.5033 17.6344C93.6844 17.2917 93.775 16.8814 93.775 16.4035V10.082H96.7081V21H93.9383L93.8961 18.2744H94.0672C93.7778 19.1911 93.3399 19.8973 92.7533 20.3931C92.1667 20.8888 91.4185 21.1367 90.5088 21.1367ZM104.819 21.1816C104.227 21.1816 103.726 21.0813 103.315 20.8806C102.904 20.6799 102.571 20.4316 102.315 20.1359C102.059 19.8402 101.862 19.5458 101.724 19.2525H101.581V21H98.7008V6.44922H101.629V11.9197H101.724C101.858 11.6295 102.05 11.3319 102.299 11.0269C102.549 10.7218 102.879 10.4653 103.291 10.2573C103.702 10.0493 104.217 9.94531 104.835 9.94531C105.645 9.94531 106.384 10.1538 107.053 10.5709C107.721 10.9879 108.257 11.6128 108.66 12.4453C109.062 13.2779 109.264 14.316 109.264 15.5598C109.264 16.7714 109.068 17.7951 108.678 18.6309C108.287 19.4667 107.757 20.1008 107.086 20.5331C106.416 20.9655 105.66 21.1816 104.819 21.1816ZM103.917 18.8341C104.428 18.8341 104.857 18.6941 105.203 18.4142C105.55 18.1343 105.812 17.7467 105.991 17.2515C106.169 16.7564 106.258 16.1894 106.258 15.5508C106.258 14.9116 106.17 14.3474 105.993 13.8582C105.816 13.369 105.554 12.9858 105.208 12.7086C104.862 12.4314 104.431 12.2928 103.917 12.2928C103.415 12.2928 102.989 12.4269 102.639 12.6952C102.288 12.9634 102.022 13.3406 101.84 13.8268C101.659 14.313 101.568 14.8876 101.568 15.5508C101.568 16.2069 101.659 16.7809 101.843 17.2728C102.026 17.7647 102.294 18.1479 102.645 18.4224C102.997 18.6969 103.421 18.8341 103.917 18.8341Z" fill="#4F46E5"/>
</svg>
