<svg width="41" height="36" viewBox="0 0 41 36" fill="none" xmlns="http://www.w3.org/2000/svg">
<path d="M38.0939 16.1V32C38.0939 33.1 37.7022 34.0417 36.9189 34.825C36.1355 35.6083 35.1939 36 34.0939 36H6.09388C4.99388 36 4.05221 35.6083 3.26888 34.825C2.48554 34.0417 2.09388 33.1 2.09388 32V16.1C1.32721 15.4 0.735544 14.5 0.318878 13.4C-0.0977891 12.3 -0.106122 11.1 0.293878 9.8L2.39388 3C2.66054 2.13333 3.13554 1.41667 3.81888 0.85C4.50221 0.283333 5.29388 0 6.19388 0H33.9939C34.8939 0 35.6772 0.275 36.3439 0.825C37.0105 1.375 37.4939 2.1 37.7939 3L39.8939 9.8C40.2939 11.1 40.2855 12.2833 39.8689 13.35C39.4522 14.4167 38.8605 15.3333 38.0939 16.1ZM24.4939 14C25.3939 14 26.0772 13.6917 26.5439 13.075C27.0105 12.4583 27.1939 11.7667 27.0939 11L25.9939 4H22.0939V11.4C22.0939 12.1 22.3272 12.7083 22.7939 13.225C23.2605 13.7417 23.8272 14 24.4939 14ZM15.4939 14C16.2605 14 16.8855 13.7417 17.3689 13.225C17.8522 12.7083 18.0939 12.1 18.0939 11.4V4H14.1939L13.0939 11C12.9605 11.8 13.1355 12.5 13.6189 13.1C14.1022 13.7 14.7272 14 15.4939 14ZM6.59388 14C7.19388 14 7.71888 13.7833 8.16888 13.35C8.61888 12.9167 8.89388 12.3667 8.99388 11.7L10.0939 4H6.19388L4.19388 10.7C3.99388 11.3667 4.10221 12.0833 4.51888 12.85C4.93554 13.6167 5.62721 14 6.59388 14ZM33.5939 14C34.5605 14 35.2605 13.6167 35.6939 12.85C36.1272 12.0833 36.2272 11.3667 35.9939 10.7L33.8939 4H30.0939L31.1939 11.7C31.2939 12.3667 31.5689 12.9167 32.0189 13.35C32.4689 13.7833 32.9939 14 33.5939 14Z" fill="#3525CD"/>
</svg>
