<svg width="20" height="16" viewBox="0 0 20 16" fill="none" xmlns="http://www.w3.org/2000/svg">
<path d="M15.9077 5.52303L14.8538 4.43845L16.7923 2.53077L17.8461 3.58459L15.9077 5.52303ZM0 15.3269V13.8269H19.5V15.3269H0ZM9 2.69229V0H10.5V2.69229H9ZM3.5923 5.49227L1.68463 3.55382L2.73845 2.5L4.67689 4.43845L3.5923 5.49227ZM5.17498 9.57689H14.325C13.9416 8.67689 13.34 7.95189 12.5202 7.40189C11.7003 6.85189 10.7769 6.57689 9.74998 6.57689C8.72306 6.57689 7.79966 6.85189 6.97979 7.40189C6.15992 7.95189 5.55831 8.67689 5.17498 9.57689ZM3.30771 11.0769C3.42311 9.37687 4.09747 7.95189 5.33079 6.80191C6.56411 5.65192 8.03718 5.07693 9.74998 5.07693C11.4628 5.07693 12.9358 5.65192 14.1692 6.80191C15.4025 7.95189 16.0769 9.37687 16.1922 11.0769H3.30771Z" fill="#777587"/>
</svg>
