<svg width="15" height="20" viewBox="0 0 15 20" fill="none" xmlns="http://www.w3.org/2000/svg">
<path d="M0 16.3846V14.8846H1.80768V7.42303C1.80768 6.07817 2.22274 4.88907 3.05287 3.85574C3.883 2.82241 4.9487 2.16151 6.24998 1.87305V1.24998C6.24998 0.902765 6.3714 0.60763 6.61423 0.364578C6.85706 0.121526 7.15193 0 7.49883 0C7.84573 0 8.14098 0.121526 8.38457 0.364578C8.62815 0.60763 8.74994 0.902765 8.74994 1.24998V1.87305C10.0512 2.16151 11.1169 2.82241 11.9471 3.85574C12.7772 4.88907 13.1922 6.07817 13.1922 7.42303V14.8846H14.9999V16.3846H0ZM7.49826 19.1922C7.00068 19.1922 6.57529 19.0152 6.22209 18.6612C5.86889 18.3072 5.69229 17.8817 5.69229 17.3846H9.30764C9.30764 17.8833 9.13047 18.3092 8.77614 18.6624C8.4218 19.0156 7.99584 19.1922 7.49826 19.1922ZM3.30764 14.8846H11.6923V7.42303C11.6923 6.26534 11.283 5.27719 10.4644 4.4586C9.6458 3.64001 8.65766 3.23071 7.49996 3.23071C6.34227 3.23071 5.35412 3.64001 4.53553 4.4586C3.71694 5.27719 3.30764 6.26534 3.30764 7.42303V14.8846Z" fill="#3525CD"/>
</svg>
