<svg width="15" height="16" viewBox="0 0 15 16" fill="none" xmlns="http://www.w3.org/2000/svg">
<path d="M1.35576 13.1249C0.976915 13.1249 0.656244 12.9937 0.393747 12.7312C0.131249 12.4687 0 12.148 0 11.7692V3.98073C0 3.60189 0.131249 3.28122 0.393747 3.01872C0.656244 2.75622 0.976915 2.62497 1.35576 2.62497H4.5V1.35576C4.5 0.976915 4.63125 0.656244 4.89375 0.393747C5.15624 0.131249 5.47691 0 5.85576 0H8.39419C8.77303 0 9.0937 0.131249 9.3562 0.393747C9.6187 0.656244 9.74994 0.976915 9.74994 1.35576V2.62497H12.8942C13.273 2.62497 13.5937 2.75622 13.8562 3.01872C14.1187 3.28122 14.2499 3.60189 14.2499 3.98073V11.7692C14.2499 12.148 14.1187 12.4687 13.8562 12.7312C13.5937 12.9937 13.273 13.1249 12.8942 13.1249H1.35576ZM1.35576 11.9999H12.8942C12.9519 11.9999 13.0048 11.9759 13.0529 11.9278C13.1009 11.8797 13.125 11.8269 13.125 11.7692V3.98073C13.125 3.92303 13.1009 3.87015 13.0529 3.82207C13.0048 3.77399 12.9519 3.74995 12.8942 3.74995H1.35576C1.29806 3.74995 1.24517 3.77399 1.19709 3.82207C1.14901 3.87015 1.12497 3.92303 1.12497 3.98073V11.7692C1.12497 11.8269 1.14901 11.8797 1.19709 11.9278C1.24517 11.9759 1.29806 11.9999 1.35576 11.9999ZM5.62497 2.62497H8.62497V1.35576C8.62497 1.29806 8.60093 1.24517 8.55285 1.19709C8.50477 1.14901 8.45188 1.12497 8.39419 1.12497H5.85576C5.79806 1.12497 5.74517 1.14901 5.69709 1.19709C5.64901 1.24517 5.62497 1.29806 5.62497 1.35576V2.62497ZM1.12497 11.9999C1.12497 11.9999 1.12497 11.9759 1.12497 11.9278C1.12497 11.8797 1.12497 11.8269 1.12497 11.7692V3.98073C1.12497 3.92303 1.12497 3.87015 1.12497 3.82207C1.12497 3.77399 1.12497 3.74995 1.12497 3.74995C1.12497 3.74995 1.12497 3.77399 1.12497 3.82207C1.12497 3.87015 1.12497 3.92303 1.12497 3.98073V11.7692C1.12497 11.8269 1.12497 11.8797 1.12497 11.9278C1.12497 11.9759 1.12497 11.9999 1.12497 11.9999Z" fill="#3525CD"/>
</svg>
