<svg width="19" height="15" viewBox="0 0 19 15" fill="none" xmlns="http://www.w3.org/2000/svg">
<path d="M18.9999 1.80768V13.1922C18.9999 13.6974 18.8249 14.1249 18.4749 14.4749C18.1249 14.8249 17.6974 14.9999 17.1922 14.9999H1.80768C1.30255 14.9999 0.874992 14.8249 0.524995 14.4749C0.174998 14.1249 0 13.6974 0 13.1922V1.80768C0 1.30255 0.174998 0.874992 0.524995 0.524995C0.874992 0.174998 1.30255 0 1.80768 0H17.1922C17.6974 0 18.1249 0.174998 18.4749 0.524995C18.8249 0.874992 18.9999 1.30255 18.9999 1.80768ZM1.49996 3.90384H17.5V1.80768C17.5 1.73075 17.4679 1.66023 17.4038 1.59612C17.3397 1.53202 17.2692 1.49996 17.1922 1.49996H1.80768C1.73075 1.49996 1.66023 1.53202 1.59612 1.59612C1.53202 1.66023 1.49996 1.73075 1.49996 1.80768V3.90384ZM1.49996 7.09609V13.1922C1.49996 13.2692 1.53202 13.3397 1.59612 13.4038C1.66023 13.4679 1.73075 13.5 1.80768 13.5H17.1922C17.2692 13.5 17.3397 13.4679 17.4038 13.4038C17.4679 13.3397 17.5 13.2692 17.5 13.1922V7.09609H1.49996ZM1.49996 13.5C1.49996 13.5 1.49996 13.4711 1.49996 13.4134C1.49996 13.3557 1.49996 13.282 1.49996 13.1922V1.80768C1.49996 1.71793 1.49996 1.6442 1.49996 1.58651C1.49996 1.52881 1.49996 1.49996 1.49996 1.49996C1.49996 1.49996 1.49996 1.52881 1.49996 1.58651C1.49996 1.6442 1.49996 1.71793 1.49996 1.80768V13.1922C1.49996 13.282 1.49996 13.3557 1.49996 13.4134C1.49996 13.4711 1.49996 13.5 1.49996 13.5Z" fill="#777587"/>
</svg>
