<svg width="22" height="27" viewBox="0 0 22 27" fill="none" xmlns="http://www.w3.org/2000/svg">
<path d="M20.5667 9.26667L15.8667 4.56667L13.0333 7.36667L10.2 4.56667L13.9667 0.766667C14.2333 0.5 14.5333 0.305556 14.8667 0.183333C15.2 0.0611111 15.5333 0 15.8667 0C16.2222 0 16.5611 0.0611111 16.8833 0.183333C17.2056 0.305556 17.4889 0.5 17.7333 0.766667L20.5667 3.6C20.9667 3.97778 21.2611 4.41667 21.45 4.91667C21.6389 5.41667 21.7333 5.92222 21.7333 6.43333C21.7333 6.94444 21.6389 7.44444 21.45 7.93333C21.2611 8.42222 20.9667 8.86667 20.5667 9.26667ZM2.2 15.4C1.8 15 1.6 14.5278 1.6 13.9833C1.6 13.4389 1.8 12.9667 2.2 12.5667L5.46667 9.26667L8.3 12.1L5 15.4C4.62222 15.8 4.16111 16 3.61667 16C3.07222 16 2.6 15.8 2.2 15.4ZM0.766667 25.3C0.522222 25.0333 0.333333 24.7389 0.2 24.4167C0.0666667 24.0944 0 23.7556 0 23.4C0 23.0444 0.0611111 22.7056 0.183333 22.3833C0.305556 22.0611 0.5 21.7667 0.766667 21.5L10.2 12.1L5.96667 7.83333C5.56667 7.45556 5.36667 6.99444 5.36667 6.45C5.36667 5.90556 5.56667 5.43333 5.96667 5.03333C6.34444 4.63333 6.81111 4.43333 7.36667 4.43333C7.92222 4.43333 8.4 4.63333 8.8 5.03333L13.0333 9.26667L14.9333 7.36667L18.6667 11.1667C18.9333 11.4333 19.0667 11.7444 19.0667 12.1C19.0667 12.4556 18.9333 12.7667 18.6667 13.0333C18.4 13.3 18.0889 13.4333 17.7333 13.4333C17.3778 13.4333 17.0667 13.3 16.8 13.0333L4.53333 25.3C4.26667 25.5667 3.97222 25.7611 3.65 25.8833C3.32778 26.0056 3 26.0667 2.66667 26.0667C2.33333 26.0667 2 26 1.66667 25.8667C1.33333 25.7333 1.03333 25.5444 0.766667 25.3Z" fill="#3525CD"/>
</svg>
