<svg width="16" height="14" viewBox="0 0 16 14" fill="none" xmlns="http://www.w3.org/2000/svg">
<path d="M8.92782 6.07207C8.40379 6.07207 7.96029 5.89058 7.59731 5.5276C7.23434 5.16463 7.05285 4.72112 7.05285 4.19709C7.05285 3.67306 7.23434 3.22956 7.59731 2.86658C7.96029 2.50361 8.40379 2.32212 8.92782 2.32212C9.45185 2.32212 9.89536 2.50361 10.2583 2.86658C10.6213 3.22956 10.8028 3.67306 10.8028 4.19709C10.8028 4.72112 10.6213 5.16463 10.2583 5.5276C9.89536 5.89058 9.45185 6.07207 8.92782 6.07207ZM3.98073 8.39419C3.6079 8.39419 3.28873 8.26143 3.02323 7.99593C2.75772 7.73043 2.62497 7.41126 2.62497 7.03843V1.35576C2.62497 0.982925 2.75772 0.663757 3.02323 0.398254C3.28873 0.132751 3.6079 0 3.98073 0H13.8749C14.2478 0 14.5669 0.132751 14.8324 0.398254C15.0979 0.663757 15.2307 0.982925 15.2307 1.35576V7.03843C15.2307 7.41126 15.0979 7.73043 14.8324 7.99593C14.5669 8.26143 14.2478 8.39419 13.8749 8.39419H3.98073ZM5.1057 7.26921H12.7499C12.7499 6.89518 12.8827 6.57571 13.1482 6.31081C13.4137 6.04591 13.7329 5.91346 14.1057 5.91346V2.48073C13.7317 2.48073 13.4122 2.34798 13.1473 2.08248C12.8824 1.81697 12.7499 1.49781 12.7499 1.12497H5.1057C5.1057 1.49901 4.97295 1.81848 4.70745 2.08338C4.44195 2.34828 4.12278 2.48073 3.74995 2.48073V5.91346C4.12398 5.91346 4.44345 6.04621 4.70835 6.31171C4.97325 6.57721 5.1057 6.89638 5.1057 7.26921ZM12.9951 11.0192H1.35576C0.982925 11.0192 0.663757 10.8864 0.398254 10.6209C0.132751 10.3554 0 10.0362 0 9.6634V2.23558H1.12497V9.6634C1.12497 9.7211 1.14901 9.77398 1.19709 9.82207C1.24517 9.87015 1.29806 9.89419 1.35576 9.89419H12.9951V11.0192ZM3.98073 7.26921H3.74995C3.74995 7.26921 3.74995 7.24638 3.74995 7.2007C3.74995 7.15502 3.74995 7.10093 3.74995 7.03843V1.35576C3.74995 1.29325 3.74995 1.23916 3.74995 1.19349C3.74995 1.14781 3.74995 1.12497 3.74995 1.12497H3.98073C3.91823 1.12497 3.86414 1.14781 3.81846 1.19349C3.77278 1.23916 3.74995 1.29325 3.74995 1.35576V7.03843C3.74995 7.10093 3.77278 7.15502 3.81846 7.2007C3.86414 7.24638 3.91823 7.26921 3.98073 7.26921Z" fill="#3525CD"/>
</svg>
