<svg width="14" height="12" viewBox="0 0 14 12" fill="none" xmlns="http://www.w3.org/2000/svg">
<path d="M0 10.9615V9.29419C0 8.92688 0.0997589 8.58674 0.299277 8.27376C0.498795 7.96079 0.765379 7.72016 1.09903 7.5519C1.84037 7.18844 2.58821 6.91584 3.34253 6.73411C4.09686 6.55238 4.85767 6.46152 5.62497 6.46152C6.02497 6.46152 6.42232 6.48604 6.81703 6.53507C7.21173 6.58411 7.60764 6.65911 8.00476 6.76007L7.06584 7.71053C6.81954 7.67509 6.57939 7.64556 6.3454 7.62193C6.11142 7.5983 5.87127 7.58649 5.62497 7.58649C4.94119 7.58649 4.26352 7.66846 3.59195 7.8324C2.92038 7.99634 2.26152 8.23745 1.61537 8.55572C1.4644 8.63745 1.34493 8.74298 1.25695 8.87231C1.16896 9.00164 1.12497 9.14226 1.12497 9.29419V9.83649H5.56728V10.9615H0ZM7.21152 11.8557V9.874L11.2831 5.82112C11.3764 5.72785 11.4771 5.66223 11.5852 5.62425C11.6933 5.58627 11.8015 5.56728 11.9096 5.56728C12.0275 5.56728 12.1416 5.58939 12.2518 5.63362C12.362 5.67785 12.4622 5.7442 12.5524 5.83266L13.2461 6.53362C13.3269 6.62689 13.3894 6.72785 13.4336 6.8365C13.4778 6.94515 13.4999 7.0538 13.4999 7.16245C13.4999 7.2711 13.4798 7.38168 13.4394 7.49418C13.399 7.60667 13.3346 7.70956 13.2461 7.80282L9.19322 11.8557H7.21152ZM12.6057 7.16245L11.912 6.46149L12.6057 7.16245ZM8.10573 10.9615H8.81823L11.2529 8.51532L10.9081 8.15907L10.5591 7.80715L8.10573 10.249V10.9615ZM10.9081 8.15907L10.5591 7.80715L11.2529 8.51532L10.9081 8.15907ZM5.62497 5.24995C4.90094 5.24995 4.28244 4.99346 3.76946 4.48048C3.25649 3.96751 3 3.349 3 2.62497C3 1.90094 3.25649 1.28244 3.76946 0.769463C4.28244 0.256488 4.90094 0 5.62497 0C6.349 0 6.96751 0.256488 7.48048 0.769463C7.99346 1.28244 8.24994 1.90094 8.24994 2.62497C8.24994 3.349 7.99346 3.96751 7.48048 4.48048C6.96751 4.99346 6.349 5.24995 5.62497 5.24995ZM5.62497 4.12497C6.03747 4.12497 6.3906 3.9781 6.68435 3.68435C6.9781 3.3906 7.12497 3.03747 7.12497 2.62497C7.12497 2.21247 6.9781 1.85935 6.68435 1.5656C6.3906 1.27185 6.03747 1.12497 5.62497 1.12497C5.21247 1.12497 4.85935 1.27185 4.5656 1.5656C4.27185 1.85935 4.12497 2.21247 4.12497 2.62497C4.12497 3.03747 4.27185 3.3906 4.5656 3.68435C4.85935 3.9781 5.21247 4.12497 5.62497 4.12497Z" fill="#3525CD"/>
</svg>
