<svg width="18" height="18" viewBox="0 0 18 18" fill="none" xmlns="http://www.w3.org/2000/svg">
<path d="M16.1384 17.1922L9.85766 10.9115C9.35766 11.3243 8.78266 11.6474 8.13266 11.8807C7.48266 12.114 6.81023 12.2307 6.11536 12.2307C4.40767 12.2307 2.96152 11.6384 1.77691 10.4538C0.592305 9.26919 0 7.82304 0 6.11536C0 4.40767 0.592305 2.96152 1.77691 1.77691C2.96152 0.592305 4.40767 0 6.11536 0C7.82304 0 9.26919 0.592305 10.4538 1.77691C11.6384 2.96152 12.2307 4.40767 12.2307 6.11536C12.2307 6.82946 12.1108 7.51151 11.8711 8.16151C11.6314 8.81151 11.3115 9.37689 10.9115 9.85766L17.1922 16.1384L16.1384 17.1922ZM6.11536 10.7307C7.40382 10.7307 8.49517 10.2836 9.3894 9.3894C10.2836 8.49517 10.7307 7.40382 10.7307 6.11536C10.7307 4.82689 10.2836 3.73554 9.3894 2.84131C8.49517 1.94708 7.40382 1.49996 6.11536 1.49996C4.82689 1.49996 3.73554 1.94708 2.84131 2.84131C1.94708 3.73554 1.49996 4.82689 1.49996 6.11536C1.49996 7.40382 1.94708 8.49517 2.84131 9.3894C3.73554 10.2836 4.82689 10.7307 6.11536 10.7307Z" fill="#3525CD"/>
</svg>
