<svg width="30" height="24" viewBox="0 0 30 24" fill="none" xmlns="http://www.w3.org/2000/svg">
<path d="M10.5 6H19.5V3H10.5V6ZM0 24V16.5H6V18H9V16.5H21V18H24V16.5H30V24H0ZM0 15V9C0 8.175 0.29375 7.46875 0.88125 6.88125C1.46875 6.29375 2.175 6 3 6H7.5V3C7.5 2.175 7.79375 1.46875 8.38125 0.88125C8.96875 0.29375 9.675 0 10.5 0H19.5C20.325 0 21.0312 0.29375 21.6187 0.88125C22.2062 1.46875 22.5 2.175 22.5 3V6H27C27.825 6 28.5312 6.29375 29.1187 6.88125C29.7062 7.46875 30 8.175 30 9V15H24V12H21V15H9V12H6V15H0Z" fill="#3525CD"/>
</svg>
